<?xml version="1.0" encoding="UTF-8"?>
<svg version="1.1" xmlns="http://www.w3.org/2000/svg" width="500" height="500">
<path d="M0 0 C165 0 330 0 500 0 C500 165 500 330 500 500 C335 500 170 500 0 500 C0 335 0 170 0 0 Z " fill="#6750A4" transform="translate(0,0)"/>
<path d="M0 0 C0.66 15.18 1.32 30.36 2 46 C17.84 46 33.68 46 50 46 C50.33 34.45 50.66 22.9 51 11 C56.28 12.32 61.56 13.64 67 15 C69.70074833 15.59785796 72.40754094 16.17088416 75.125 16.6875 C76.89230469 17.03361328 76.89230469 17.03361328 78.6953125 17.38671875 C84.7592951 18.25064368 90.89035163 18.56359654 97 19 C97 81.04 97 143.08 97 207 C87.98111588 207 87.98111588 207 85.01953125 206.51953125 C84.34220947 206.41044434 83.6648877 206.30135742 82.96704102 206.18896484 C82.25604248 206.06473145 81.54504395 205.94049805 80.8125 205.8125 C80.03769287 205.6779541 79.26288574 205.5434082 78.46459961 205.40478516 C66.60574247 203.27442322 54.83673837 200.83773412 43.5078125 196.67578125 C13.39998237 185.63139665 -11.98620608 189.60219675 -40.59765625 202.71484375 C-41.50841919 203.12859253 -42.41918213 203.54234131 -43.35754395 203.96862793 C-45.57323691 204.97576109 -47.78732842 205.98625061 -50 207 C-50.21019412 182.59166386 -50.36892615 158.18346325 -50.46630955 133.77440453 C-50.51272738 122.44092947 -50.57601588 111.10801658 -50.67895508 99.77490234 C-50.76862919 89.89750664 -50.8267165 80.020518 -50.84679645 70.14272654 C-50.85853553 64.91170973 -50.88614165 59.68185752 -50.95157051 54.45121384 C-51.01265804 49.527748 -51.03150559 44.60592628 -51.01796913 39.68211746 C-51.02044536 37.8752575 -51.03835321 36.06834264 -51.07284927 34.2618103 C-51.32058897 20.61874915 -51.32058897 20.61874915 -48.07600212 16.64160538 C-45.75215622 15.04968102 -43.62564477 13.99971077 -41 13 C-39.58950657 12.28829617 -38.18252187 11.56953629 -36.78125 10.83984375 C-35.35953268 10.19378803 -33.93224109 9.55987737 -32.5 8.9375 C-31.73461914 8.60169922 -30.96923828 8.26589844 -30.18066406 7.91992188 C-24.79711821 5.62182487 -19.35770478 3.67551796 -13.75 2 C-13.05970703 1.79238037 -12.36941406 1.58476074 -11.65820312 1.37084961 C-7.4808287 0.19660486 -4.47350304 0 0 0 Z " fill="#FEFEFE" transform="translate(305,171)"/>
<path d="M0 0 C1.76267566 -0.01301861 3.5253791 -0.02231259 5.28808594 -0.0300293 C6.26968689 -0.03560349 7.25128784 -0.04117767 8.26263428 -0.04692078 C13.72232542 0.04666297 18.7716813 1.53511799 24 3 C25.72863281 3.47566406 25.72863281 3.47566406 27.4921875 3.9609375 C37.36972736 6.95606249 51.55242645 11.55242645 59 19 C59.09768222 21.42849471 59.12996531 23.82851363 59.12025452 26.25746155 C59.12153615 27.41030495 59.12153615 27.41030495 59.12284368 28.58643812 C59.12450081 31.18142786 59.11897334 33.77635403 59.11352539 36.37133789 C59.11324354 38.22367857 59.1134012 40.07601937 59.1139679 41.92835999 C59.11425597 46.97360411 59.10835773 52.01882468 59.10139394 57.06406331 C59.09516195 62.33050369 59.09455672 67.59694456 59.09336853 72.86338806 C59.09025475 82.84357958 59.08204075 92.8237602 59.07201904 102.80394691 C59.06085933 114.1628819 59.05534781 125.5218174 59.05032361 136.8807565 C59.03985817 160.25384372 59.02225784 183.62692125 59 207 C58.3598848 206.71539917 57.71976959 206.43079834 57.06025696 206.13757324 C54.10119349 204.82574226 51.13853626 203.52222102 48.17578125 202.21875 C47.16938599 201.77112305 46.16299072 201.32349609 45.12609863 200.86230469 C24.08061922 191.63086724 0.66648107 184.57381794 -22 192 C-23.37984201 192.61953495 -24.75441389 193.25087406 -26.125 193.890625 C-31.62547625 196.39073693 -37.29465096 197.95692952 -43.125 199.5 C-44.25212402 199.80043213 -45.37924805 200.10086426 -46.54052734 200.41040039 C-54.18525581 202.39456512 -61.84631836 204.07161192 -69.625 205.4375 C-70.55328613 205.60121094 -71.48157227 205.76492188 -72.43798828 205.93359375 C-77.83112538 206.81943258 -82.38612716 207 -88 207 C-88 144.96 -88 82.92 -88 19 C-79.75 18.01 -71.5 17.02 -63 16 C-59.535 15.505 -59.535 15.505 -56 15 C-55.99453156 15.88631104 -55.99453156 15.88631104 -55.98895264 16.79052734 C-55.94666729 23.02186393 -55.87701161 29.25249506 -55.79248047 35.48339844 C-55.76450707 37.79908135 -55.74317694 40.11485556 -55.72900391 42.43066406 C-55.60493929 61.56969922 -55.24606691 80.4978186 -41.6484375 95.44140625 C-28.89120992 107.5033347 -11.19978626 107.57808156 5.26171875 107.13183594 C17.46753682 106.54418065 27.45277822 102.61888871 39 98 C39.33 82.82 39.66 67.64 40 52 C30.1 54.97 30.1 54.97 20 58 C15.6906272 58.7182288 12.05130137 59.16048178 7.75 59.1875 C6.71359375 59.20167969 5.6771875 59.21585938 4.609375 59.23046875 C2 59 2 59 0 57 C-0.24050903 54.59555054 -0.24050903 54.59555054 -0.22705078 51.54052734 C-0.22689972 50.39949554 -0.22674866 49.25846375 -0.22659302 48.08285522 C-0.21627045 46.84637238 -0.20594788 45.60988953 -0.1953125 44.3359375 C-0.1924826 43.07359283 -0.18965271 41.81124817 -0.18673706 40.51065063 C-0.17742131 37.15353056 -0.15944835 33.79668088 -0.1373291 30.43963623 C-0.1168755 27.01446878 -0.1077364 23.58927341 -0.09765625 20.1640625 C-0.07556458 13.44263329 -0.04206377 6.72133227 0 0 Z " fill="#FEFEFE" transform="translate(188,171)"/>
<path d="M0 0 C4.29 0.33 8.58 0.66 13 1 C13 67.99 13 134.98 13 204 C-5.49742589 202.84391088 -5.49742589 202.84391088 -14.5 200.8125 C-15.50554932 200.59327881 -16.51109863 200.37405762 -17.54711914 200.14819336 C-20.70261439 199.45064736 -23.85180883 198.72976151 -27 198 C-28.03882324 197.76087891 -29.07764648 197.52175781 -30.14794922 197.27539062 C-41.15598615 194.71274574 -52.00321249 191.98853641 -62.56225586 187.91625977 C-89.54879076 177.61881232 -120.69617608 189.02736011 -145.48828125 200.046875 C-146.27348145 200.3867041 -147.05868164 200.7265332 -147.86767578 201.07666016 C-149.65222739 201.84940737 -151.42700344 202.64467799 -153.19921875 203.4453125 C-157.15597541 204.22893795 -158.97196676 203.01039391 -162.5 201.125 C-182.07196385 191.24074776 -202.3957632 184.73698785 -224.375 184.5625 C-225.44459961 184.5521875 -226.51419922 184.541875 -227.61621094 184.53125 C-237.82945948 184.64497624 -246.97719381 187.06120591 -256.4375 190.75 C-277.23125503 198.39813742 -300.74748044 204 -323 204 C-323 137.01 -323 70.02 -323 1 C-319.04 1 -315.08 1 -311 1 C-311 61.39 -311 121.78 -311 184 C-276.67558798 178.19851752 -276.67558798 178.19851752 -243.69921875 168.33203125 C-236.28043463 165.66064225 -230.14539944 164.67307571 -222.3125 164.75 C-221.33297363 164.75604248 -220.35344727 164.76208496 -219.34423828 164.76831055 C-212.3902005 164.86353181 -205.7842951 165.40250577 -199 167 C-198.10410156 167.18304688 -197.20820313 167.36609375 -196.28515625 167.5546875 C-183.59083452 170.37564789 -170.81345715 175.17304746 -159.32421875 181.25 C-153.44437311 183.14736195 -148.08558703 179.80544436 -142.875 177.3125 C-119.32609537 166.47536008 -92.3541742 160.14501022 -67.05664062 168.34521484 C-63.00315623 169.63574727 -58.90360811 170.77302748 -54.8125 171.9375 C-53.91837402 172.19265381 -53.02424805 172.44780762 -52.10302734 172.71069336 C-49.40333245 173.47853873 -46.70204066 174.24045389 -44 175 C-43.17338867 175.23396484 -42.34677734 175.46792969 -41.49511719 175.70898438 C-27.60879847 179.587596 -14.53210703 181.18348662 0 183 C0 122.61 0 62.22 0 0 Z " fill="#FCFBFD" transform="translate(405,201)"/>
<path d="M0 0 C7.92 0 15.84 0 24 0 C24 9.57 24 19.14 24 29 C36.87 29 49.74 29 63 29 C63 38.24 63 47.48 63 57 C50.13 57 37.26 57 24 57 C24.0908368 69.29509753 24.0908368 69.29509753 24.20898438 81.58984375 C24.26325146 86.60657907 24.31436361 91.62320401 24.34643555 96.64013672 C24.37250249 100.6862907 24.41292848 104.73207279 24.46318626 108.77799606 C24.47983214 110.3192519 24.49136061 111.86057202 24.49761391 113.40190506 C24.5072802 115.56601925 24.53536736 117.72918693 24.56762695 119.89306641 C24.58428154 121.73839462 24.58428154 121.73839462 24.60127258 123.6210022 C25.1763321 128.49431854 26.86496229 131.78200944 30.19140625 135.3515625 C33.81197645 137.47657032 36.86325794 137.52223404 40.9375 137.375 C41.67734131 137.36210937 42.41718262 137.34921875 43.17944336 137.3359375 C50.22862186 137.14282999 57.04369189 136.17158873 64 135 C64 144.24 64 153.48 64 163 C52.34442767 166.58632995 44.23664167 168.22061606 32.5 168.3125 C31.29601562 168.34150391 30.09203125 168.37050781 28.8515625 168.40039062 C18.53250931 168.47251304 7.31200349 167.32941178 -0.5 159.875 C-9.75504251 150.69495783 -13.20304168 138.4792892 -13.34057617 125.68286133 C-13.35118306 122.48215202 -13.32404134 119.28256687 -13.29296875 116.08203125 C-13.28736211 114.37139765 -13.28309707 112.66075919 -13.28010559 110.95011902 C-13.26874079 106.48341183 -13.23934734 102.01700492 -13.20599365 97.55041504 C-13.17511071 92.97831278 -13.1615616 88.40616123 -13.14648438 83.83398438 C-13.11446814 74.88917086 -13.06177031 65.94465757 -13 57 C-18.94 57 -24.88 57 -31 57 C-32.07480123 42.43047217 -32.07480123 42.43047217 -29.3828125 38.84765625 C-26.9994135 37.31668287 -24.56673417 36.19861537 -22 35 C-13.58104824 30.96501997 -9.70720317 27.06708552 -6.52734375 18.24023438 C-6.14707031 17.06783203 -5.76679688 15.89542969 -5.375 14.6875 C-4.95605469 13.49576172 -4.53710938 12.30402344 -4.10546875 11.07617188 C-3.33861741 8.89101782 -2.58725258 6.70031913 -1.85693359 4.50268555 C-1 2 -1 2 0 0 Z " fill="#FEFEFE" transform="translate(154,101)"/>
<path d="M0 0 C13.86 0 27.72 0 42 0 C42 7.75087297 41.97602268 15.37909248 41.55688477 23.09790039 C41.50972321 24.016866 41.46256165 24.9358316 41.41397095 25.88264465 C41.25973983 28.87116355 41.10070027 31.8594033 40.94140625 34.84765625 C40.83145889 36.95265971 40.72175777 39.05767604 40.61228943 41.16270447 C40.38319729 45.55430252 40.15183753 49.94577303 39.91870117 54.3371582 C39.6214887 59.93706871 39.3289021 65.53720879 39.03788853 71.1374445 C38.81201182 75.47777542 38.58420943 79.81800357 38.35578728 84.15820122 C38.24729346 86.22203598 38.13925806 88.28589489 38.03170967 90.34977913 C37.88050488 93.24378603 37.72683487 96.13765216 37.57250977 99.03149414 C37.52935135 99.86559814 37.48619293 100.69970215 37.44172668 101.55908203 C37.09113282 108.05900611 36.54131582 114.50421016 36 121 C26.1 121 16.2 121 6 121 C3.96504389 102.31873628 3.04327262 83.61515779 2.14013672 64.85253906 C1.92028969 60.2865873 1.69190802 55.72110961 1.46098137 51.15570641 C1.28080011 47.57453885 1.10518571 43.99315771 0.93085098 40.4117012 C0.84849702 38.73035615 0.76482439 37.04907502 0.67965317 35.36787033 C0.63969349 34.57449894 0.59973381 33.78112755 0.55856323 32.9637146 C0.52359175 32.27796545 0.48862026 31.5922163 0.45258904 30.88568687 C-0.0090155 20.53598176 0 10.40479311 0 0 Z " fill="#FCFCFD" transform="translate(310,87)"/>
<path d="M0 0 C6.95521426 4.40455429 11.39350512 10.27812006 14.125 18 C14.52143805 20.80676776 14.55569641 23.54403123 14.5 26.375 C14.48912354 27.12450928 14.47824707 27.87401855 14.46704102 28.64624023 C14.21375298 37.44823847 12.35002411 43.66993693 6.23046875 50.20703125 C-2.37796172 57.5377726 -11.93789612 58.81654508 -22.875 58 C-31.36163376 56.1412254 -37.62797378 52.60356162 -42.6328125 45.5078125 C-47.97538744 36.33846296 -48.09713866 27.51508073 -46.4296875 17.26171875 C-44.3893122 9.78464723 -39.20232341 4.10917198 -32.75 0 C-23.61158615 -4.13337488 -9.13841385 -4.13337488 0 0 Z " fill="#6B54A6" transform="translate(346.875,222)"/>
<path d="M0 0 C4.3425679 3.08990408 7.22919348 6.38517177 9.25 11.3125 C9.97101185 18.4757995 10.02266591 25.06808746 6.25 31.3125 C2.16851345 36.16615968 -1.96886951 38.97621952 -8.3359375 39.74609375 C-22.14312891 39.76032797 -22.14312891 39.76032797 -27.75 35.3125 C-32.7299707 30.3325293 -33.86571919 25.30844135 -34.125 18.4375 C-33.99861259 12.06283492 -32.71073375 7.40465013 -28.25390625 2.75 C-21.39184986 -3.27355074 -8.26669842 -3.89021102 0 0 Z " fill="#FDFCFD" transform="translate(342.75,230.6875)"/>
</svg>
